<?xml version="1.0" encoding="UTF-8" standalone="no"?>
<!-- Generator: Adobe Illustrator 15.0.0, SVG Export Plug-In . SVG Version: 6.00 Build 0)  -->

<svg
   xmlns:dc="http://purl.org/dc/elements/1.1/"
   xmlns:cc="http://creativecommons.org/ns#"
   xmlns:rdf="http://www.w3.org/1999/02/22-rdf-syntax-ns#"
   xmlns:svg="http://www.w3.org/2000/svg"
   xmlns="http://www.w3.org/2000/svg"
   xmlns:sodipodi="http://sodipodi.sourceforge.net/DTD/sodipodi-0.dtd"
   xmlns:inkscape="http://www.inkscape.org/namespaces/inkscape"
   version="1.1"
   id="Layer_1"
   x="0px"
   y="0px"
   width="8503.94px"
   height="5102.36px"
   viewBox="0 0 8503.94 5102.36"
   enable-background="new 0 0 8503.94 5102.36"
   xml:space="preserve"
   inkscape:version="0.48.1 "
   sodipodi:docname="hg-logo.svg"><metadata
   id="metadata17"><rdf:RDF><cc:Work
       rdf:about=""><dc:format>image/svg+xml</dc:format><dc:type
         rdf:resource="http://purl.org/dc/dcmitype/StillImage" /><dc:title></dc:title></cc:Work></rdf:RDF></metadata><defs
   id="defs15" /><sodipodi:namedview
   pagecolor="#ffffff"
   bordercolor="#666666"
   borderopacity="1"
   objecttolerance="10"
   gridtolerance="10"
   guidetolerance="10"
   inkscape:pageopacity="0"
   inkscape:pageshadow="2"
   inkscape:window-width="1366"
   inkscape:window-height="768"
   id="namedview13"
   showgrid="false"
   inkscape:zoom="0.2664368"
   inkscape:cx="2161.4182"
   inkscape:cy="3755.907"
   inkscape:window-x="0"
   inkscape:window-y="0"
   inkscape:window-maximized="0"
   inkscape:current-layer="Layer_1" />
<g
   id="g3"
   transform="matrix(13.184795,0,0,13.257324,-53929.905,-32604.68)"
   inkscape:export-filename="D:\s\w\web design\cartonama\2012.03 workshop\hasgeek_cartonama\flowRoot3002.png"
   inkscape:export-xdpi="19.63467"
   inkscape:export-ydpi="19.63467">
	<path
   d="m 4189.008,2507.282 8.187,-1.922 c 0.352,1.679 0.532,4.168 0.532,7.468 v 6.094 c 0,0.281 -0.024,0.715 -0.063,1.297 -0.043,0.574 -0.062,1 -0.062,1.281 2.312,-2.187 5.203,-3.281 8.671,-3.281 4.258,0 6.907,1.453 7.938,4.359 0.519,1.469 0.781,3.36 0.781,5.672 v 21.391 h -7.828 v -20.547 c 0,-2.789 -1.039,-4.188 -3.109,-4.188 -2.149,0 -4.258,0.938 -6.328,2.813 v 21.922 h -8.125 v -35.375 c 0,-3.258 -0.2,-5.586 -0.594,-6.984 l 0,0 z m 32.715,15.406 c 1.312,-0.832 2.961,-1.664 4.953,-2.5 2.906,-1.195 5.691,-1.797 8.359,-1.797 5.344,0 8.629,1.773 9.86,5.312 0.406,1.157 0.585,2.993 0.546,5.5 l -0.187,10.813 c 0,1.594 0.16,2.793 0.484,3.594 0.395,0.918 1.192,1.813 2.391,2.688 l -4.25,4.891 c -2.074,-0.875 -3.508,-2.11 -4.297,-3.703 -2.187,2.195 -4.855,3.297 -8,3.297 -3.273,0 -5.805,-0.778 -7.594,-2.329 -1.961,-1.632 -2.937,-4.046 -2.937,-7.234 0,-7.008 4.898,-10.516 14.703,-10.516 0.758,0 1.359,0.024 1.797,0.063 v -1.266 c 0,-1.625 -0.199,-2.738 -0.594,-3.343 -0.48,-0.789 -1.48,-1.188 -3,-1.188 -2.469,0 -5.414,1.152 -8.828,3.453 l -3.406,-5.735 0,0 z m 15.703,13.562 h -0.36 c -2.429,0 -4.121,0.203 -5.078,0.61 -1.593,0.679 -2.39,2.031 -2.39,4.063 0,1.117 0.304,2.063 0.922,2.844 0.625,0.773 1.492,1.156 2.609,1.156 1.508,0 2.906,-0.695 4.187,-2.094 l 0.11,-6.579 0,0 z m 37.262,-15.172 -2.625,5.375 c -2.906,-1.468 -5.418,-2.203 -7.531,-2.203 -2.586,0 -3.875,0.996 -3.875,2.985 0,1.398 1.27,2.433 3.813,3.109 l 3.703,0.953 c 5.188,1.355 7.781,4.246 7.781,8.672 0,3.461 -1.355,6.148 -4.063,8.063 -2.438,1.707 -5.449,2.563 -9.031,2.563 -3.742,0 -7.859,-1.172 -12.359,-3.516 l 2.859,-5.859 c 3.781,2.313 7.164,3.469 10.156,3.469 1.07,0 2.016,-0.305 2.828,-0.922 0.82,-0.625 1.234,-1.473 1.234,-2.547 0,-1.957 -1.574,-3.211 -4.719,-3.766 l -3.578,-0.656 c -4.906,-0.914 -7.359,-3.785 -7.359,-8.609 0,-3.188 1.195,-5.695 3.593,-7.531 2.188,-1.625 4.93,-2.438 8.234,-2.438 3.396,-10e-4 7.04,0.952 10.939,2.858 l 0,0 z m 0,0"
   id="path5"
   inkscape:connector-curvature="0"
   style="fill:#eb5b1f" />
	<path
   d="m 4218.328,2554.969 3.36,5.078 c -1.637,1.523 -3.512,2.28 -5.626,2.28 -0.437,0 -1.136,-0.062 -2.093,-0.187 1.195,1.437 1.797,3.108 1.797,5.016 0,2.875 -1.196,5.148 -3.578,6.813 -2.157,1.524 -4.731,2.28 -7.719,2.28 -0.399,0 -0.793,-0.019 -1.188,-0.062 -2.117,0.992 -3.172,1.824 -3.172,2.5 0,0.479 0.438,0.719 1.313,0.719 l 4.312,0.063 c 7.926,0.125 11.891,3.215 11.891,9.266 0,3.625 -1.594,6.332 -4.781,8.125 -2.555,1.438 -5.805,2.156 -9.75,2.156 -3.586,0 -6.633,-0.563 -9.141,-1.688 -3.305,-1.511 -4.953,-3.858 -4.953,-7.046 0,-1.118 0.238,-2.153 0.719,-3.109 h 7.406 c -0.242,0.563 -0.359,1.223 -0.359,1.984 0,2.5 1.91,3.75 5.734,3.75 4.664,0 7,-1.37 7,-4.11 0,-2.351 -1.875,-3.569 -5.625,-3.655 l -3.406,-0.047 c -3.106,-0.039 -5.196,-0.224 -6.266,-0.547 -2.273,-0.677 -3.406,-2.148 -3.406,-4.423 0,-2.425 1.867,-4.14 5.609,-5.14 -4.386,-1.114 -6.578,-3.942 -6.578,-8.485 0,-3.425 1.336,-6.054 4.016,-7.89 2.344,-1.625 5.304,-2.438 8.89,-2.438 1.563,0 3.395,0.259 5.5,0.767 1.789,0.437 3.047,0.656 3.766,0.656 2.27,-10e-4 4.379,-0.876 6.328,-2.626 l 0,0 z m -15.64,7.047 c -3.188,0 -4.782,1.516 -4.782,4.547 0,2.906 1.571,4.359 4.719,4.359 3.258,0 4.891,-1.453 4.891,-4.359 0,-3.031 -1.61,-4.547 -4.828,-4.547 l 0,0 z m 42.57,17.094 3.109,4.781 c -3.461,2.836 -7.305,4.25 -11.531,4.25 -4.586,0 -8.168,-1.517 -10.75,-4.547 -2.469,-2.863 -3.703,-6.629 -3.703,-11.298 0,-4.655 1.055,-8.437 3.172,-11.344 2.383,-3.269 5.804,-4.905 10.265,-4.905 8.602,0 12.907,5.538 12.907,16.609 v 1.859 h -17.688 v 0.233 c 0,4.938 2.149,7.407 6.453,7.407 2.75,0 5.336,-1.014 7.766,-3.045 l 0,0 z m -14.094,-10.453 h 9.266 v -0.359 c 0,-4.259 -1.496,-6.391 -4.485,-6.391 -3.187,0 -4.781,2.211 -4.781,6.625 v 0.125 l 0,0 z m 44.551,10.453 3.109,4.781 c -3.461,2.836 -7.305,4.25 -11.531,4.25 -4.586,0 -8.168,-1.517 -10.75,-4.547 -2.469,-2.863 -3.703,-6.629 -3.703,-11.298 0,-4.655 1.055,-8.437 3.172,-11.344 2.383,-3.269 5.805,-4.905 10.266,-4.905 8.602,0 12.906,5.538 12.906,16.609 v 1.859 h -17.688 v 0.233 c 0,4.938 2.148,7.407 6.453,7.407 2.75,0 5.336,-1.014 7.766,-3.045 l 0,0 z m -14.094,-10.453 h 9.266 v -0.359 c 0,-4.259 -1.496,-6.391 -4.484,-6.391 -3.188,0 -4.781,2.211 -4.781,6.625 v 0.125 l -0,0 z m 39.832,-11.954 h 9.625 l -9.734,12.782 12,17.812 h -9.438 l -10.281,-17.327 7.828,-13.267 0,0 z m -16.547,-11.828 8.063,-1.968 c 0.32,2.031 0.484,5.339 0.484,9.921 v 34.469 h -8 v -34.469 c 0,-2.914 -0.183,-5.566 -0.547,-7.953 l 0,0 z m 0,0"
   id="path7"
   inkscape:connector-curvature="0"
   style="fill:#856a91" />
</g>
<rect
   x="1736.3018"
   y="1811.5474"
   width="2689.6982"
   height="848.46875"
   id="rect9"
   style="fill:none" />

<flowRoot
   xml:space="preserve"
   id="flowRoot2994"
   style="font-size:72.00000193px;font-style:normal;font-weight:normal;line-height:125%;letter-spacing:0px;word-spacing:0px;fill:#000000;fill-opacity:1;stroke:none;font-family:Sans"
   transform="translate(-3.2877614e-4,0)"><flowRegion
     id="flowRegion2996"><rect
       id="rect2998"
       width="1651.4235"
       height="491.67383"
       x="851.98438"
       y="1563.0591"
       style="font-size:72.00000193px" /></flowRegion><flowPara
     id="flowPara3000" /></flowRoot><flowRoot
   xml:space="preserve"
   id="flowRoot3002"
   style="font-size:22px;font-style:normal;font-weight:normal;line-height:125%;letter-spacing:0px;word-spacing:0px;fill:#000000;fill-opacity:1;stroke:none;font-family:Sans"
   transform="translate(-270.23327,-22.519412)"
   inkscape:export-xdpi="19.63467"
   inkscape:export-ydpi="19.63467"><flowRegion
     id="flowRegion3004"><rect
       id="rect3006"
       width="1433.7358"
       height="420.36234"
       x="1989.2147"
       y="1769.4869"
       style="font-size:22px" /></flowRegion><flowPara
     id="flowPara3008"
     style="font-size:300px;font-style:normal;font-variant:normal;font-weight:normal;font-stretch:normal;fill:#4ac0d2;fill-opacity:1;font-family:Myriad Pro;-inkscape-font-specification:Myriad Pro">PRESENTS</flowPara></flowRoot></svg>